<?xml version="1.0" encoding="UTF-8"?>
<svg width="30px" height="30px" viewBox="0 0 30 30" version="1.1" xmlns="http://www.w3.org/2000/svg" xmlns:xlink="http://www.w3.org/1999/xlink">
    <!-- Generator: Sketch 51.3 (57544) - http://www.bohemiancoding.com/sketch -->
    <title>cerrar</title>
    <desc>Created with Sketch.</desc>
    <defs></defs>
    <g id="Web-v11" stroke="none" stroke-width="1" fill="none" fill-rule="evenodd">
        <g id="Menu" transform="translate(-1355.000000, -51.000000)" fill="#FFFFFF" fill-rule="nonzero">
            <g id="cerrar" transform="translate(1355.000000, 51.000000)">
                <path d="M0.585805507,3.41432471 C-0.195268502,2.6332507 -0.195268502,1.36687952 0.585805507,0.585805507 C1.36687952,-0.195268502 2.6332507,-0.195268502 3.41432471,0.585805507 L29.4141945,26.5856753 C30.1952685,27.3667493 30.1952685,28.6331205 29.4141945,29.4141945 C28.6331205,30.1952685 27.3667493,30.1952685 26.5856753,29.4141945 L0.585805507,3.41432471 Z" id="Path-4"></path>
                <path d="M26.5521157,0.591563424 C27.3408669,-0.197187808 28.6196853,-0.197187808 29.4084366,0.591563424 C30.1971878,1.38031466 30.1971878,2.65913308 29.4084366,3.44788431 L3.44788431,29.4084366 C2.65913308,30.1971878 1.38031466,30.1971878 0.591563424,29.4084366 C-0.197187808,28.6196853 -0.197187808,27.3408669 0.591563424,26.5521157 L26.5521157,0.591563424 Z" id="Path-7"></path>
            </g>
        </g>
    </g>
</svg>