<?xml version="1.0" encoding="UTF-8"?>
<svg width="52px" height="52px" viewBox="0 0 52 52" version="1.1" xmlns="http://www.w3.org/2000/svg" xmlns:xlink="http://www.w3.org/1999/xlink">
    <!-- Generator: Sketch 51.3 (57544) - http://www.bohemiancoding.com/sketch -->
    <title>Group 2</title>
    <desc>Created with Sketch.</desc>
    <defs>
        <polygon id="path-1" points="0.00625082491 0.034252045 15.9942771 0.034252045 15.9942771 17.1818182 0.00625082491 17.1818182"></polygon>
    </defs>
    <g id="Web-v11" stroke="none" stroke-width="1" fill="none" fill-rule="evenodd">
        <g id="Home" transform="translate(-1332.000000, -923.000000)">
            <g id="Group-2" transform="translate(1333.000000, 924.000000)">
                <g id="Group-8" transform="translate(13.000000, 13.000000)">
                    <g id="Group-3" transform="translate(8.000000, 7.000000)">
                        <mask id="mask-2" fill="white">
                            <use xlink:href="#path-1"></use>
                        </mask>
                        <g id="Clip-2"></g>
                        <path d="M15.9938368,17.1787675 L15.7833336,17.1787675 C14.2104626,17.1785609 12.6375915,17.1783887 11.0647205,17.1781132 C10.8342934,17.1780788 10.8341243,17.1779411 10.8340228,16.944833 C10.8327374,13.9550934 10.8383526,10.9653193 10.8249911,7.97561406 C10.8219467,7.29553773 10.7293632,6.61876692 10.4555704,5.98665506 C10.1026909,5.17184434 9.47977336,4.73551569 8.61174799,4.63855376 C8.10187907,4.5816024 7.60472896,4.62395438 7.11468245,4.76801997 C6.27381987,5.01524533 5.7577945,5.60200958 5.46945624,6.41895511 C5.27458097,6.97104584 5.17073319,7.5437272 5.16768879,8.12921745 C5.15256829,11.0317396 5.14482199,13.9342617 5.13457252,16.8368183 C5.13420042,16.9398059 5.13450486,17.0427591 5.13450486,17.1691952 C5.06012008,17.1727418 4.99544355,17.1785609 4.93073319,17.1785609 C3.35786216,17.1788019 1.78499112,17.175944 0.212120085,17.181832 C0.0465725159,17.1824173 0.00611585624,17.1301488 0.00625116279,16.9679373 C0.00993826638,11.5507407 0.00919408034,6.13357854 0.00939704017,0.716381964 C0.00939704017,0.426666897 0.0106486258,0.4265636 0.297938266,0.4265636 C1.76371416,0.426632465 3.22945624,0.426632465 4.69523214,0.427080087 C4.93093615,0.427148952 4.93134207,0.428181927 4.93140973,0.664320022 C4.93157886,1.28982084 4.9313759,1.91532166 4.93130825,2.54082248 L4.93130825,2.71983706 L4.97014123,2.72971918 C4.99388753,2.70296513 5.02348584,2.67958546 5.04050063,2.64897497 C5.50135476,1.81825644 6.16865285,1.20501359 6.98184524,0.74909284 C7.81283044,0.283152232 8.70480507,0.062026708 9.65408203,0.037855092 C10.6785556,0.011755256 11.6780313,0.12386748 12.6414816,0.491778758 C13.1780397,0.696686573 13.6583442,0.995663983 14.084526,1.38960623 C14.9847205,2.22177092 15.4256169,3.29833751 15.6856423,4.47238251 C15.8512237,5.21994655 15.9395789,5.9781158 15.9604499,6.74417009 C15.9730672,7.20770042 15.992044,7.67129962 15.9924837,8.13486438 C15.9953928,11.0615237 15.9939044,13.988183 15.9938368,16.9148423 L15.9938368,17.1787675 Z" id="Fill-1" fill="#FFFFFF" mask="url(#mask-2)"></path>
                    </g>
                    <path d="M1.01041068,23.989015 C1.00681588,23.9242076 1.00124228,23.8708755 1.00124228,23.8175106 C1.00097845,18.6293687 1.00094547,13.441194 1.00183592,8.25301932 C1.00190188,7.98208434 0.961105802,8.00089196 1.26062884,8.00069468 C2.76629109,7.9996425 4.27195335,8.00003707 5.77761561,8.00026723 C5.9956784,8.00030011 5.99877851,8.00289767 5.99881149,8.22112527 C5.99920724,13.4147581 5.99920724,18.6084239 5.99983386,23.8020567 C5.99983386,23.9103321 6.01124489,24.000589 5.84492749,23.9999971 C4.27337148,23.9943745 2.7017825,23.9967748 1.13016053,23.9965447 C1.09737856,23.9965447 1.0645636,23.9925332 1.01041068,23.989015" id="Fill-4" fill="#FFFFFF"></path>
                    <path d="M2.99938593,0.000602392126 C4.65312084,-0.00562829335 6.0021407,1.32685317 5.99999745,2.99133142 C5.9978542,4.66857748 4.71415231,5.98900613 2.99785505,5.99993537 C1.31397862,6.01066032 0.0579688153,4.68515859 0.00187021907,3.09221405 C-0.0589571248,1.36610989 1.37286684,-0.0332748322 2.99938593,0.000602392126" id="Fill-6" fill="#FFFFFF"></path>
                </g>
                <path d="M25,50.5 C10.9167389,50.5 -0.5,39.0832611 -0.5,25 C-0.5,10.9167389 10.9167389,-0.5 25,-0.5 C39.0832611,-0.5 50.5,10.9167389 50.5,25 C50.5,39.0832611 39.0832611,50.5 25,50.5 Z M25,49.5 C38.5309764,49.5 49.5,38.5309764 49.5,25 C49.5,11.4690236 38.5309764,0.5 25,0.5 C11.4690236,0.5 0.5,11.4690236 0.5,25 C0.5,38.5309764 11.4690236,49.5 25,49.5 Z" id="Oval-5" fill="#FFFFFF" fill-rule="nonzero"></path>
            </g>
        </g>
    </g>
</svg>