<?xml version="1.0" encoding="UTF-8"?>
<svg width="52px" height="52px" viewBox="0 0 52 52" version="1.1" xmlns="http://www.w3.org/2000/svg" xmlns:xlink="http://www.w3.org/1999/xlink">
    <!-- Generator: sketchtool 51.3 (57544) - http://www.bohemiancoding.com/sketch -->
    <title>BC06EC7A-D90B-45E4-AE27-2FE1078859C4</title>
    <desc>Created with sketchtool.</desc>
    <defs></defs>
    <g id="Web-v11" stroke="none" stroke-width="1" fill="none" fill-rule="evenodd">
        <g id="Home" transform="translate(-59.000000, -923.000000)" fill="#FFFFFF" fill-rule="nonzero">
            <g id="icon-play" transform="translate(60.000000, 924.000000)">
                <path d="M25,50.5 C10.9167389,50.5 -0.5,39.0832611 -0.5,25 C-0.5,10.9167389 10.9167389,-0.5 25,-0.5 C39.0832611,-0.5 50.5,10.9167389 50.5,25 C50.5,39.0832611 39.0832611,50.5 25,50.5 Z M25,49.5 C38.5309764,49.5 49.5,38.5309764 49.5,25 C49.5,11.4690236 38.5309764,0.5 25,0.5 C11.4690236,0.5 0.5,11.4690236 0.5,25 C0.5,38.5309764 11.4690236,49.5 25,49.5 Z" id="Oval-5"></path>
                <path d="M15,15 C14.4155273,15.3852539 14.4658203,34.1650391 15,34.5722656 C15.5341797,34.9794922 34.921875,26.1054688 34.921875,24.7861328 C34.921875,23.4667969 15.5844727,14.6147461 15,15 Z" id="Path-3"></path>
            </g>
        </g>
    </g>
</svg>