<?xml version="1.0" encoding="UTF-8"?>
<svg width="40px" height="27px" viewBox="0 0 40 27" version="1.1" xmlns="http://www.w3.org/2000/svg" xmlns:xlink="http://www.w3.org/1999/xlink">
    <!-- Generator: Sketch 51.3 (57544) - http://www.bohemiancoding.com/sketch -->
    <title>menu-black</title>
    <desc>Created with Sketch.</desc>
    <defs></defs>
    <g id="Web-v11" stroke="none" stroke-width="1" fill="none" fill-rule="evenodd">
        <g id="Home-/-TASC-1.2" transform="translate(-1350.000000, -57.000000)" fill="#000000" fill-rule="nonzero">
            <g id="menu-black" transform="translate(1350.000000, 57.000000)">
                <path d="M1.78086957,4.25 C0.797322463,4.25 0,3.3545695 0,2.25 C0,1.1454305 0.797322463,0.25 1.78086957,0.25 L38.2191304,0.25 C39.2026775,0.25 40,1.1454305 40,2.25 C40,3.3545695 39.2026775,4.25 38.2191304,4.25 L1.78086957,4.25 Z" id="Path-5"></path>
                <path d="M1.78086957,26.25 C0.797322463,26.25 0,25.3545695 0,24.25 C0,23.1454305 0.797322463,22.25 1.78086957,22.25 L38.2191304,22.25 C39.2026775,22.25 40,23.1454305 40,24.25 C40,25.3545695 39.2026775,26.25 38.2191304,26.25 L1.78086957,26.25 Z" id="Path-5-Copy-2"></path>
                <path d="M1.78086957,15.25 C0.797322463,15.25 0,14.3545695 0,13.25 C0,12.1454305 0.797322463,11.25 1.78086957,11.25 L38.2191304,11.25 C39.2026775,11.25 40,12.1454305 40,13.25 C40,14.3545695 39.2026775,15.25 38.2191304,15.25 L1.78086957,15.25 Z" id="Path-5-Copy"></path>
            </g>
        </g>
    </g>
</svg>